<?xml version="1.0" encoding="iso-8859-1"?>
<!-- Generator: Adobe Illustrator 16.0.0, SVG Export Plug-In . SVG Version: 6.00 Build 0)  -->
<!DOCTYPE svg PUBLIC "-//W3C//DTD SVG 1.1//EN" "http://www.w3.org/Graphics/SVG/1.1/DTD/svg11.dtd">
<svg version="1.1" id="Capa_1" xmlns="http://www.w3.org/2000/svg" xmlns:xlink="http://www.w3.org/1999/xlink" x="0px" y="0px"
	 width="497.911px" height="497.911px" viewBox="0 0 497.911 497.911" style="enable-background:new 0 0 497.911 497.911;"
	 xml:space="preserve">
<g>
	<path d="M196.968,128.615c0-11.027,8.965-19.953,19.953-19.953c10.988,0,19.953,8.926,19.953,19.953s-8.965,19.953-19.953,19.953
		C205.933,148.568,196.968,139.642,196.968,128.615z M216.92,350.846c-10.184,0-18.488,8.27-18.488,18.487
		s8.305,18.488,18.488,18.488c10.183,0,18.488-8.271,18.488-18.488S227.104,350.846,216.92,350.846z M97.655,230.467
		c-10.184,0-18.488,8.305-18.488,18.488c0,10.219,8.305,18.488,18.488,18.488c10.254,0,18.488-8.27,18.488-18.488
		C116.143,238.775,107.909,230.467,97.655,230.467z M316.471,248.959c0,10.488,8.527,18.977,18.978,18.977
		c10.526,0,18.977-8.487,18.977-18.977c0-10.453-8.449-18.977-18.977-18.977C324.995,229.978,316.471,238.506,316.471,248.959z
		 M225.519,226.025v-4.734H213.8v4.734c-5.785,1.641-10.57,5.633-13.262,10.891H151.3v19.531h49.238
		c2.691,5.258,7.477,9.25,13.262,10.891v71.141h11.719v-71.145c5.785-1.637,10.57-5.633,13.262-10.891h14.082v-19.531h-14.082
		C236.088,231.658,231.304,227.662,225.519,226.025z M467.706,214.127v70.312h-46.875v-19.922h-18.531
		c-3.223,38.016-17.141,72.965-39.69,101.104c-5.043,34.008-21.211,90.691-21.211,90.691l-41.984,41.598h-167.97l-39-41.598
		c0,0-16.105-56.652-21.152-90.688c-25.648-31.973-41.086-72.48-41.086-116.668s15.438-84.699,41.086-116.668
		C76.338,98.25,92.443,42.25,92.443,42.25L131.889,0h167.969l41.539,42.25c0,0,16.168,56.031,21.211,90.066
		c22.551,28.113,36.469,63.059,39.69,101.078h18.532v-19.271h46.875V214.127z M368.612,248.955
		c0-83.641-68.023-151.691-151.691-151.691c-83.609,0-151.691,68.055-151.691,151.691c0,83.637,68.081,151.691,151.691,151.691
		C300.588,400.646,368.612,332.596,368.612,248.955z M166.269,191.34l-37.742-37.741l-11.048,11.048l37.742,37.742L166.269,191.34z
		 M316.944,164.228l-11.474-10.609l-34.694,37.516l11.473,10.609L316.944,164.228z M117.463,338.475l11.048,11.05l37.739-37.739
		l-11.048-11.048L117.463,338.475z M270.77,312.02l34.691,37.508l11.471-10.609l-34.691-37.508L270.77,312.02z" fill="#444444"/>
</g>
<g>
</g>
<g>
</g>
<g>
</g>
<g>
</g>
<g>
</g>
<g>
</g>
<g>
</g>
<g>
</g>
<g>
</g>
<g>
</g>
<g>
</g>
<g>
</g>
<g>
</g>
<g>
</g>
<g>
</g>
</svg>
